<?xml version="1.0" encoding="UTF-8" standalone="no"?><!-- Generator: Gravit.io --><svg xmlns="http://www.w3.org/2000/svg" xmlns:xlink="http://www.w3.org/1999/xlink" style="isolation:isolate" viewBox="0 0 600 600" width="600pt" height="600pt"><defs><clipPath id="_clipPath_87PbyXG0IjNhekPyRZ8Queu4lO4Qvi8o"><rect width="600" height="600"/></clipPath></defs><g clip-path="url(#_clipPath_87PbyXG0IjNhekPyRZ8Queu4lO4Qvi8o)"><path d="M 300 106.25 L 300 106.25 C 316.392 106.25 329.7 119.56 329.7 135.954 L 329.7 464.046 C 329.7 480.44 316.392 493.75 300 493.75 L 300 493.75 C 283.608 493.75 270.3 480.44 270.3 464.046 L 270.3 135.954 C 270.3 119.56 283.608 106.25 300 106.25 Z" style="stroke:none;fill:#5CE681;stroke-miterlimit:10;"/><path d="M 493.75 300 L 493.75 300 C 493.75 316.392 480.44 329.7 464.046 329.7 L 135.954 329.7 C 119.56 329.7 106.25 316.392 106.25 300 L 106.25 300 C 106.25 283.608 119.56 270.3 135.954 270.3 L 464.046 270.3 C 480.44 270.3 493.75 283.608 493.75 300 Z" style="stroke:none;fill:#5CE681;stroke-miterlimit:10;"/></g></svg>